<svg width="20"
    height="20"
    viewBox="0 0 20 20"
    fill="none"
    xmlns="http://www.w3.org/2000/svg">
    <path
        d="M14.3528 5.99211C14.6706 5.65919 14.6583 5.1317 14.3254 4.81391C13.9925 4.49613 13.465 4.5084 13.1472 4.84131L8.09473 10.1344C7.77695 10.4673 7.78922 10.9948 8.12213 11.3126C8.45505 11.6304 8.98254 11.6181 9.30033 11.2852L14.3528 5.99211Z"
        fill="black" />
    <path
        d="M2.68613 10.9524C2.36835 10.6195 1.84085 10.6072 1.50794 10.925C1.17502 11.2428 1.16276 11.7703 1.48054 12.1032L4.39721 15.1588C4.55445 15.3235 4.77227 15.4167 5 15.4167C5.22774 15.4167 5.44555 15.3235 5.6028 15.1588L6.02947 14.7118C6.34726 14.3789 6.33499 13.8514 6.00207 13.5336C5.73303 13.2768 5.3369 13.2355 5.02708 13.4049L2.68613 10.9524Z"
        fill="black" />
    <path
        d="M18.5195 5.99211C18.8372 5.65919 18.825 5.1317 18.4921 4.81391C18.1592 4.49613 17.6317 4.5084 17.3139 4.84131L9.16667 13.3765L6.8528 10.9524C6.53502 10.6195 6.00752 10.6072 5.67461 10.925C5.34169 11.2428 5.32942 11.7703 5.64721 12.1032L8.56387 15.1588C8.72112 15.3235 8.93893 15.4167 9.16667 15.4167C9.3944 15.4167 9.61222 15.3235 9.76947 15.1588L18.5195 5.99211Z"
        fill="black" />
</svg>
