<svg width="20"
    height="20"
    viewBox="0 0 20 20"
    fill="none"
    xmlns="http://www.w3.org/2000/svg">
    <path
        fill-rule="evenodd"
        clip-rule="evenodd"
        d="M0.833374 9.99999C0.833374 4.93738 4.93743 0.833328 10 0.833328C15.0626 0.833328 19.1667 4.93738 19.1667 9.99999C19.1667 15.0626 15.0626 19.1667 10 19.1667C4.93743 19.1667 0.833374 15.0626 0.833374 9.99999ZM4.20684 5.50315C3.24153 6.74495 2.66671 8.30534 2.66671 9.99999C2.66671 14.0501 5.94995 17.3333 10 17.3333C11.6947 17.3333 13.2551 16.7585 14.4969 15.7932L4.20684 5.50315ZM5.5032 4.20679L15.7932 14.4968C16.7585 13.255 17.3334 11.6946 17.3334 9.99999C17.3334 5.94991 14.0501 2.66666 10 2.66666C8.30539 2.66666 6.74499 3.24149 5.5032 4.20679Z"
        fill="black" />
</svg>
