<svg width="20" height="20" viewBox="0 0 20 20" fill="none" xmlns="http://www.w3.org/2000/svg">
<path d="M16.5701 4.90305C16.9769 4.49625 16.9769 3.8367 16.5701 3.42991C16.1634 3.02311 15.5038 3.02311 15.097 3.42991L10.0002 8.52667L4.90348 3.42991C4.49668 3.02311 3.83714 3.02311 3.43034 3.42991C3.02355 3.8367 3.02355 4.49625 3.43034 4.90305L8.5271 9.99981L3.43034 15.0966C3.02355 15.5034 3.02355 16.1629 3.43034 16.5697C3.83714 16.9765 4.49668 16.9765 4.90348 16.5697L10.0002 11.473L15.097 16.5697C15.5038 16.9765 16.1634 16.9765 16.5701 16.5697C16.9769 16.1629 16.9769 15.5034 16.5701 15.0966L11.4734 9.99981L16.5701 4.90305Z" fill="black"/>
</svg>
