<svg width="18"
    height="18"
    viewBox="0 0 18 18"
    fill="none"
    xmlns="http://www.w3.org/2000/svg">
    <path
        fill-rule="evenodd"
        clip-rule="evenodd"
        d="M14.8048 0.00330324C14.5147 -0.00269006 13.7278 0.000578927 12.8187 0.00435894L12.3905 0.00611147C11.2983 0.0104531 10.1074 0.0136988 9.36295 0.00316899L3.51617 0.00316705C3.36875 0.00316736 3.08387 0.00640936 2.78058 0.0621316C2.49454 0.114684 2.09024 0.231064 1.78851 0.531063C1.64234 0.67639 1.52549 0.860822 1.43536 1.02508C1.34103 1.19701 1.25505 1.38603 1.17993 1.5671C1.03499 1.91641 0.915646 2.27258 0.845834 2.48093L0.839467 2.49993L0.273837 4.13969C0.184735 4.37758 0.0909299 4.74273 0.0398844 5.10678C0.0136577 5.29382 -0.00341482 5.49524 0.000578312 5.68998C0.00440683 5.87661 0.0280485 6.09945 0.111043 6.30574C0.243685 6.63544 0.533851 6.98452 0.771836 7.23823C0.783158 7.2503 0.794548 7.26235 0.805999 7.27437C0.805778 7.28119 0.805666 7.28804 0.805665 7.29492L0.805664 11.5073C0.805646 12.647 0.805634 13.5656 0.902767 14.288C1.00361 15.0381 1.21936 15.6697 1.72095 16.1713C2.22255 16.6729 2.85411 16.8886 3.6042 16.9895C4.32668 17.0866 5.24528 17.0866 6.38494 17.0866L8.93067 17.0866C9.27584 17.0866 9.55567 16.8068 9.55567 16.4616C9.55567 16.1164 9.27584 15.8366 8.93066 15.8366L6.43066 15.8366C5.23448 15.8366 4.40022 15.8353 3.77077 15.7506C3.15929 15.6684 2.83548 15.518 2.60485 15.2874C2.3742 15.0568 2.22383 14.7329 2.14162 14.1215C2.05699 13.492 2.05566 12.6578 2.05567 11.4616L2.05566 8.25772C2.22577 8.34467 2.4188 8.42792 2.62986 8.50003C3.19117 8.69178 3.91881 8.81842 4.74589 8.71022C5.48978 8.6129 6.09308 8.3047 6.57065 7.90686C7.08401 8.29946 7.89616 8.70118 8.92923 8.71544C9.69064 8.72596 10.3746 8.4664 10.9033 8.16417C11.0675 8.07029 11.2207 7.97005 11.3609 7.86844C11.9953 8.40317 13.1887 9.05093 14.9573 8.56578C17.0616 7.98851 17.7358 6.6286 17.9037 5.81669C17.9123 5.77504 17.9167 5.73263 17.9167 5.6901C17.9167 5.3031 17.7969 4.74657 17.5796 4.03817C17.3566 3.31129 17.0124 2.36787 16.5235 1.18211C16.5185 1.17005 16.5131 1.15815 16.5074 1.14643C16.4192 0.965447 16.2446 0.69949 15.9788 0.46925C15.7072 0.23399 15.3124 0.0137886 14.8048 0.00330324ZM8.94649 7.46556C8.26457 7.45615 7.73182 7.20013 7.40267 6.96795C7.69696 6.52267 7.88522 6.07406 7.98058 5.72926C8.0726 5.39658 7.8775 5.05228 7.54481 4.96027C7.21212 4.86825 6.86783 5.06335 6.77582 5.39604C6.57103 6.13642 5.84566 7.30569 4.58374 7.47078C3.97711 7.55015 3.4442 7.45729 3.03395 7.31714C2.60965 7.1722 2.3531 6.98982 2.29482 6.93485C2.27212 6.91343 2.24784 6.89375 2.22219 6.87596C2.1187 6.80416 1.90137 6.6153 1.68353 6.38306C1.45326 6.13757 1.30898 5.9343 1.2707 5.83914C1.2707 5.83914 1.2654 5.82417 1.26049 5.79341C1.25534 5.76114 1.25142 5.71829 1.25032 5.66434C1.24808 5.55527 1.25771 5.42345 1.27777 5.28035C1.31862 4.98906 1.39387 4.7113 1.44613 4.57361C1.44839 4.56765 1.45056 4.56166 1.45264 4.55564L2.02205 2.90498L2.02857 2.88554C2.09908 2.67519 2.20664 2.35428 2.33449 2.04615C2.39979 1.88878 2.4664 1.74456 2.53124 1.62638C2.60029 1.50053 2.64921 1.438 2.66984 1.41749C2.70171 1.38581 2.80191 1.32914 3.00646 1.29155C3.19377 1.25714 3.38559 1.25317 3.51617 1.25317L9.34971 1.25317C10.1082 1.26381 11.3089 1.26042 12.3954 1.2561L12.8216 1.25436C13.738 1.25057 14.5059 1.2474 14.779 1.25304C14.921 1.25597 15.0461 1.31503 15.1604 1.41411C15.2714 1.51019 15.346 1.62277 15.3771 1.68095C15.8522 2.83465 16.1782 3.73208 16.3846 4.4048C16.5771 5.03221 16.6518 5.42177 16.6646 5.62899C16.5542 6.06851 16.1421 6.94457 14.6266 7.36032C13.4596 7.68046 12.6858 7.31933 12.2517 6.98381C12.41 6.72476 12.598 6.32382 12.7806 5.75315C12.8858 5.42439 12.7046 5.0726 12.3759 4.96739C12.0471 4.86218 11.6953 5.0434 11.5901 5.37215C11.3685 6.06475 11.1728 6.35992 11.1323 6.41107C10.9864 6.57612 10.6831 6.85021 10.2829 7.07898C9.87832 7.31029 9.41572 7.47204 8.94649 7.46556Z"
        fill="#0E1017" />
    <path
        d="M4.139 13.1283C4.139 12.7831 4.41882 12.5033 4.764 12.5033L8.09733 12.5033C8.44251 12.5033 8.72233 12.7831 8.72233 13.1283C8.72233 13.4734 8.44251 13.7533 8.09733 13.7533L4.764 13.7533C4.41882 13.7533 4.139 13.4734 4.139 13.1283Z"
        fill="#0E1017" />
    <path
        d="M13.514 13.1283C13.514 12.668 13.8871 12.2949 14.3473 12.2949L14.3548 12.2949C14.8151 12.2949 15.1882 12.668 15.1882 13.1283C15.1882 13.5885 14.8151 13.9616 14.3548 13.9616L14.3473 13.9616C13.8871 13.9616 13.514 13.5885 13.514 13.1283Z"
        fill="#0E1017" />
    <path
        fill-rule="evenodd"
        clip-rule="evenodd"
        d="M14.375 9.58333C12.43 9.58333 10.8333 11.1341 10.8333 13.0713C10.8333 14.1751 11.3885 14.9997 11.9642 15.6596C12.1693 15.8948 12.3948 16.128 12.6055 16.3459C12.6852 16.4285 12.7632 16.5091 12.8368 16.5865C13.117 16.8811 13.3578 17.1521 13.5439 17.4288C13.6995 17.6602 13.9777 17.9193 14.3798 17.9193C14.7888 17.9193 15.0662 17.6525 15.217 17.4121C15.3937 17.1304 15.6273 16.86 15.9027 16.5697C15.9927 16.4748 16.0918 16.3733 16.1945 16.268C16.3859 16.0718 16.59 15.8627 16.7711 15.66C17.3513 15.0106 17.9167 14.1974 17.9167 13.0713C17.9167 11.1341 16.32 9.58333 14.375 9.58333ZM12.0833 13.0713C12.0833 11.8462 13.0984 10.8333 14.375 10.8333C15.6516 10.8333 16.6667 11.8462 16.6667 13.0713C16.6667 13.7338 16.3505 14.2546 15.8389 14.8272C15.6729 15.0131 15.5074 15.1823 15.3318 15.362L15.3312 15.3627C15.224 15.4723 15.113 15.5859 14.9958 15.7094C14.7837 15.933 14.5661 16.1749 14.3694 16.4396C14.1711 16.1845 13.9536 15.947 13.7426 15.7251C13.6534 15.6313 13.5664 15.5413 13.4815 15.4535C13.2795 15.2446 13.089 15.0475 12.9061 14.8379C12.3966 14.2537 12.0833 13.7189 12.0833 13.0713Z"
        fill="#0E1017" />
</svg>
