<svg width="40"
    height="40"
    viewBox="0 0 40 40"
    fill="none"
    xmlns="http://www.w3.org/2000/svg">
    <rect
        width="40"
        height="40"
        rx="20"
        fill="#27374D" />
    <g clip-path="url(#clip0_17382_180)">
        <path
            d="M22.6836 20.5052L25.2891 23.8656L26.0977 25.2855L25.7109 26.1556L25.083 27.226H21.3223L19.2861 23.9672C18.8734 23.3067 17.8975 23.3504 17.5459 24.0453L15.9365 27.226H6L17.4707 13.7836L22.6836 20.5052Z"
            fill="#EBDFCE" />
        <path
            d="M17.471 13.7836L11.5286 27.2221L10.0506 27.2221L6 27.2221L17.471 13.7836Z"
            fill="#F8F0E5" />
        <g filter="url(#filter0_f_17382_180)">
            <path
                d="M15.9771 23.4193C16.0265 23.3894 16.0739 23.3552 16.1089 23.3121C16.1438 23.2689 16.1634 23.2198 16.1634 23.1693C16.1634 23.1188 16.1438 23.0697 16.1089 23.0265C16.0739 22.9834 16.0265 22.9492 15.9771 22.9193C15.9327 22.8935 15.894 22.8683 15.8477 22.8438C15.0679 22.4027 14.2887 22.178 13.5061 22.1696C13.4924 22.1694 13.4756 22.1693 13.4604 22.1693C13.4437 22.1693 13.4232 22.1693 13.4036 22.1693C13.4027 22.1693 13.4021 22.1745 13.4016 22.1849C13.4015 22.1875 13.4009 22.1905 13.4008 22.1937C13.4008 22.1945 13.4007 22.1954 13.4007 22.1962C13.4007 22.1964 13.4007 22.1967 13.4007 22.1969C13.4007 22.1969 13.4007 22.1969 13.4007 22.197C13.4007 22.197 13.4007 22.197 13.4007 22.197C13.4007 22.197 13.4007 22.197 13.4007 22.197C13.4007 22.197 13.4007 22.197 13.4007 22.197C13.4007 22.197 13.4007 22.197 13.4007 22.197C13.4007 22.197 13.4007 22.197 13.4007 22.197C13.4007 22.197 13.4007 22.197 13.4007 22.197C13.4007 22.8452 13.4007 20.0364 13.4007 24.1416C13.4007 24.1416 13.4007 24.1416 13.4007 24.1416C13.4007 24.1416 13.4007 24.1416 13.4007 24.1416C13.4007 24.1416 13.4007 24.1416 13.4007 24.1416C13.4007 24.1416 13.4007 24.1416 13.4007 24.1416C13.4007 24.1416 13.4007 24.1416 13.4007 24.1416C13.4007 24.1415 13.4007 24.1415 13.4007 24.1414C13.4007 24.1413 13.4007 24.1412 13.4007 24.1411C13.4007 24.1407 13.4007 24.1402 13.4008 24.1398C13.4008 24.138 13.4009 24.1361 13.401 24.1342C13.4014 24.1263 13.4034 24.1172 13.4048 24.1068C13.4061 24.0651 13.4078 24.0026 13.4097 23.9193C13.4136 23.7526 13.4189 23.5026 13.4255 23.1693C13.4189 22.836 13.4136 22.586 13.4097 22.4193C13.4078 22.336 13.4061 22.2735 13.4048 22.2318C13.4034 22.2214 13.4014 22.2123 13.401 22.2045C13.4009 22.2025 13.4008 22.2006 13.4008 22.1989C13.4007 22.1984 13.4007 22.198 13.4007 22.1975C13.4007 22.1974 13.4007 22.1973 13.4007 22.1972C13.4007 22.1971 13.4007 22.1971 13.4007 22.197C13.4007 22.197 13.4007 22.197 13.4007 22.197C13.4007 22.197 13.4007 22.197 13.4007 22.197C13.4007 22.197 13.4007 22.197 13.4007 22.197C13.4007 22.197 13.4007 22.197 13.4007 22.197C13.4007 22.197 13.4007 22.197 13.4007 22.197C13.4007 26.3022 13.4007 23.4934 13.4007 24.1416C13.4007 24.1416 13.4007 24.1416 13.4007 24.1416C13.4007 24.1416 13.4007 24.1416 13.4007 24.1416C13.4007 24.1416 13.4007 24.1416 13.4007 24.1416C13.4007 24.1416 13.4007 24.1416 13.4007 24.1416C13.4007 24.1416 13.4007 24.1416 13.4007 24.1416C13.4007 24.1416 13.4007 24.1417 13.4007 24.1417C13.4007 24.1417 13.4007 24.1417 13.4007 24.1418C13.4007 24.142 13.4007 24.1422 13.4007 24.1424C13.4007 24.1432 13.4008 24.1441 13.4008 24.1449C13.4009 24.1482 13.4015 24.1511 13.4016 24.1537C13.4021 24.1641 13.4027 24.1693 13.4036 24.1693C13.4232 24.1693 13.4437 24.1693 13.4604 24.1693C13.4756 24.1693 13.4924 24.1692 13.5061 24.1691C14.2887 24.1606 15.0679 23.9359 15.8477 23.4948C15.894 23.4703 15.9327 23.4452 15.9771 23.4193Z"
                fill="#D9CCBA" />
        </g>
        <g filter="url(#filter1_f_17382_180)">
            <path
                d="M17.5058 19.9653C17.5553 19.9354 17.6027 19.9013 17.6376 19.8581C17.6725 19.8149 17.6922 19.7659 17.6922 19.7153C17.6922 19.6648 17.6725 19.6157 17.6376 19.5726C17.6027 19.5294 17.5553 19.4953 17.5058 19.4653C17.4614 19.4395 17.4228 19.4143 17.3765 19.3898C16.5966 18.9488 15.8175 18.724 15.0349 18.7156C15.0211 18.7154 15.0044 18.7153 14.9891 18.7153C14.9724 18.7153 14.952 18.7153 14.9323 18.7153C14.9315 18.7153 14.9308 18.7205 14.9304 18.731C14.9302 18.7336 14.9296 18.7365 14.9295 18.7397C14.9295 18.7406 14.9295 18.7414 14.9295 18.7422C14.9295 18.7425 14.9295 18.7427 14.9295 18.7429C14.9295 18.7429 14.9295 18.7429 14.9295 18.743C14.9295 18.743 14.9295 18.743 14.9295 18.743C14.9295 18.743 14.9295 18.743 14.9295 18.743C14.9295 18.743 14.9295 18.743 14.9295 18.743C14.9295 18.743 14.9295 18.743 14.9295 18.743C14.9295 18.743 14.9295 18.743 14.9295 18.743C14.9295 18.743 14.9295 18.743 14.9295 18.743C14.9295 19.3912 14.9295 16.5824 14.9295 20.6876C14.9295 20.6876 14.9295 20.6876 14.9295 20.6876C14.9295 20.6876 14.9295 20.6876 14.9295 20.6876C14.9295 20.6876 14.9295 20.6876 14.9295 20.6876C14.9295 20.6876 14.9295 20.6876 14.9295 20.6876C14.9295 20.6876 14.9295 20.6876 14.9295 20.6876C14.9295 20.6876 14.9295 20.6875 14.9295 20.6874C14.9295 20.6873 14.9295 20.6872 14.9295 20.6871C14.9295 20.6867 14.9295 20.6862 14.9295 20.6858C14.9295 20.684 14.9296 20.6821 14.9298 20.6802C14.9302 20.6724 14.9322 20.6632 14.9336 20.6528C14.9349 20.6112 14.9365 20.5487 14.9385 20.4653C14.9424 20.2987 14.9476 20.0487 14.9542 19.7153C14.9476 19.382 14.9424 19.132 14.9385 18.9653C14.9365 18.882 14.9349 18.8195 14.9336 18.7778C14.9322 18.7674 14.9302 18.7583 14.9298 18.7505C14.9296 18.7485 14.9295 18.7467 14.9295 18.7449C14.9295 18.7444 14.9295 18.744 14.9295 18.7435C14.9295 18.7434 14.9295 18.7433 14.9295 18.7432C14.9295 18.7432 14.9295 18.7431 14.9295 18.7431C14.9295 18.7431 14.9295 18.7431 14.9295 18.7431C14.9295 18.7431 14.9295 18.7431 14.9295 18.7431C14.9295 18.7431 14.9295 18.7431 14.9295 18.7431C14.9295 18.743 14.9295 18.743 14.9295 18.743C14.9295 18.743 14.9295 18.743 14.9295 18.743C14.9295 22.8482 14.9295 20.0394 14.9295 20.6876C14.9295 20.6876 14.9295 20.6876 14.9295 20.6876C14.9295 20.6876 14.9295 20.6876 14.9295 20.6876C14.9295 20.6876 14.9295 20.6876 14.9295 20.6876C14.9295 20.6876 14.9295 20.6876 14.9295 20.6876C14.9295 20.6876 14.9295 20.6876 14.9295 20.6876C14.9295 20.6877 14.9295 20.6877 14.9295 20.6877C14.9295 20.6877 14.9295 20.6877 14.9295 20.6878C14.9295 20.688 14.9295 20.6882 14.9295 20.6884C14.9295 20.6893 14.9295 20.6901 14.9295 20.6909C14.9296 20.6942 14.9302 20.6971 14.9304 20.6997C14.9308 20.7101 14.9315 20.7153 14.9323 20.7153C14.952 20.7153 14.9724 20.7153 14.9891 20.7153C15.0044 20.7153 15.0211 20.7152 15.0349 20.7151C15.8175 20.7067 16.5966 20.4819 17.3765 20.0408C17.4228 20.0163 17.4614 19.9912 17.5058 19.9653Z"
                fill="#D9CCBA" />
        </g>
        <g filter="url(#filter2_f_17382_180)">
            <path
                d="M16.1791 18.66C16.2253 18.5411 16.2696 18.4312 16.3023 18.3516C16.335 18.2703 16.3533 18.216 16.3533 18.16C16.3533 18.1041 16.335 18.0498 16.3023 17.9685C16.2696 17.8888 16.2253 17.779 16.1791 17.66C16.1581 17.6084 16.1398 17.558 16.1179 17.509C15.7489 16.6269 15.3802 16.1774 15.0099 16.1605C15.0034 16.1602 14.9955 16.16 14.9883 16.16C14.9804 16.16 14.9707 16.16 14.9614 16.16C14.961 16.16 14.9607 16.1705 14.9605 16.1913C14.9604 16.1965 14.9601 16.2024 14.9601 16.2089C14.9601 16.2105 14.9601 16.2122 14.9601 16.2139C14.9601 16.2143 14.9601 16.2147 14.9601 16.2152C14.9601 16.2152 14.9601 16.2153 14.9601 16.2153C14.9601 16.2153 14.9601 16.2154 14.9601 16.2154C14.9601 16.2154 14.9601 16.2154 14.9601 16.2154C14.9601 16.2154 14.9601 16.2155 14.9601 16.2155C14.9601 16.2155 14.9601 16.2155 14.9601 16.2155C14.9601 16.2155 14.9601 16.2155 14.9601 16.2155C14.9601 16.2155 14.9601 16.2155 14.9601 16.2155C14.9601 16.2155 14.9601 16.2155 14.9601 16.2155C14.9601 24.4258 14.9601 18.8082 14.9601 20.1046C14.9601 20.1046 14.9601 20.1046 14.9601 20.1046C14.9601 20.1046 14.9601 20.1046 14.9601 20.1046C14.9601 20.1046 14.9601 20.1046 14.9601 20.1046C14.9601 20.1046 14.9601 20.1046 14.9601 20.1046C14.9601 20.1045 14.9601 20.1044 14.9601 20.1043C14.9601 20.104 14.9601 20.1038 14.9601 20.1036C14.9601 20.1027 14.9601 20.1018 14.9601 20.101C14.9601 20.0974 14.9601 20.0936 14.9602 20.0897C14.9604 20.0741 14.9614 20.0559 14.962 20.035C14.9626 19.9517 14.9634 19.8267 14.9643 19.66C14.9662 19.3267 14.9686 18.8267 14.9718 18.16C14.9686 17.4934 14.9662 16.9934 14.9643 16.66C14.9634 16.4934 14.9626 16.3684 14.962 16.285C14.9614 16.2642 14.9604 16.246 14.9602 16.2303C14.9601 16.2264 14.9601 16.2227 14.9601 16.2191C14.9601 16.2182 14.9601 16.2173 14.9601 16.2165C14.9601 16.2162 14.9601 16.216 14.9601 16.2158C14.9601 16.2157 14.9601 16.2156 14.9601 16.2155C14.9601 16.2155 14.9601 16.2155 14.9601 16.2155C14.9601 16.2155 14.9601 16.2155 14.9601 16.2155C14.9601 16.2155 14.9601 16.2155 14.9601 16.2155C14.9601 16.2155 14.9601 16.2155 14.9601 16.2155C14.9601 17.5118 14.9601 11.8942 14.9601 20.1046C14.9601 20.1046 14.9601 20.1046 14.9601 20.1046C14.9601 20.1046 14.9601 20.1046 14.9601 20.1046C14.9601 20.1046 14.9601 20.1046 14.9601 20.1046C14.9601 20.1046 14.9601 20.1046 14.9601 20.1046C14.9601 20.1046 14.9601 20.1046 14.9601 20.1046C14.9601 20.1046 14.9601 20.1047 14.9601 20.1047C14.9601 20.1047 14.9601 20.1047 14.9601 20.1047C14.9601 20.1048 14.9601 20.1049 14.9601 20.1049C14.9601 20.1053 14.9601 20.1058 14.9601 20.1062C14.9601 20.1079 14.9601 20.1096 14.9601 20.1112C14.9601 20.1177 14.9604 20.1236 14.9605 20.1288C14.9607 20.1496 14.961 20.16 14.9614 20.16C14.9707 20.16 14.9804 20.16 14.9883 20.16C14.9955 20.16 15.0034 20.1599 15.0099 20.1595C15.3802 20.1427 15.7489 19.6932 16.1179 18.8111C16.1398 18.7621 16.1581 18.7117 16.1791 18.66Z"
                fill="#D9CCBA" />
        </g>
        <g filter="url(#filter3_f_17382_180)">
            <path
                d="M9.36004 24.63C9.31062 24.6599 9.26323 24.6941 9.22829 24.7372C9.19334 24.7804 9.17371 24.8295 9.17371 24.88C9.17371 24.9305 9.19334 24.9796 9.22829 25.0228C9.26323 25.0659 9.31062 25.1001 9.36004 25.13C9.40444 25.1558 9.4431 25.181 9.48941 25.2055C10.2693 25.6466 11.0484 25.8713 11.831 25.8798C11.8448 25.8799 11.8615 25.88 11.8768 25.88C11.8935 25.88 11.9139 25.88 11.9336 25.88C11.9344 25.88 11.935 25.8748 11.9355 25.8644C11.9356 25.8618 11.9363 25.8588 11.9363 25.8556C11.9364 25.8548 11.9364 25.8539 11.9364 25.8531C11.9364 25.8529 11.9364 25.8527 11.9364 25.8524C11.9364 25.8524 11.9364 25.8524 11.9364 25.8524C11.9364 25.8523 11.9364 25.8523 11.9364 25.8523C11.9364 25.8523 11.9364 25.8523 11.9364 25.8523C11.9364 25.8523 11.9364 25.8523 11.9364 25.8523C11.9364 25.8523 11.9364 25.8523 11.9364 25.8523C11.9364 25.8523 11.9364 25.8523 11.9364 25.8523C11.9364 25.8523 11.9364 25.8523 11.9364 25.8523C11.9364 25.2041 11.9364 28.0129 11.9364 23.9077C11.9364 23.9077 11.9364 23.9077 11.9364 23.9077C11.9364 23.9077 11.9364 23.9077 11.9364 23.9077C11.9364 23.9077 11.9364 23.9077 11.9364 23.9077C11.9364 23.9077 11.9364 23.9077 11.9364 23.9077C11.9364 23.9077 11.9364 23.9077 11.9364 23.9077C11.9364 23.9078 11.9364 23.9078 11.9364 23.9079C11.9364 23.908 11.9364 23.9081 11.9364 23.9082C11.9364 23.9087 11.9364 23.9091 11.9364 23.9095C11.9363 23.9113 11.9363 23.9132 11.9361 23.9152C11.9357 23.923 11.9337 23.9321 11.9323 23.9425C11.931 23.9842 11.9294 24.0467 11.9274 24.13C11.9235 24.2967 11.9183 24.5467 11.9117 24.88C11.9183 25.2133 11.9235 25.4633 11.9274 25.63C11.9294 25.7133 11.931 25.7758 11.9323 25.8175C11.9337 25.8279 11.9357 25.837 11.9361 25.8448C11.9363 25.8468 11.9363 25.8487 11.9364 25.8505C11.9364 25.8509 11.9364 25.8514 11.9364 25.8518C11.9364 25.8519 11.9364 25.852 11.9364 25.8521C11.9364 25.8522 11.9364 25.8522 11.9364 25.8523C11.9364 25.8523 11.9364 25.8523 11.9364 25.8523C11.9364 25.8523 11.9364 25.8523 11.9364 25.8523C11.9364 25.8523 11.9364 25.8523 11.9364 25.8523C11.9364 25.8523 11.9364 25.8523 11.9364 25.8523C11.9364 25.8523 11.9364 25.8523 11.9364 25.8523C11.9364 21.7471 11.9364 24.5559 11.9364 23.9077C11.9364 23.9077 11.9364 23.9077 11.9364 23.9077C11.9364 23.9077 11.9364 23.9077 11.9364 23.9077C11.9364 23.9077 11.9364 23.9077 11.9364 23.9077C11.9364 23.9077 11.9364 23.9077 11.9364 23.9077C11.9364 23.9077 11.9364 23.9077 11.9364 23.9077C11.9364 23.9077 11.9364 23.9077 11.9364 23.9076C11.9364 23.9076 11.9364 23.9076 11.9364 23.9076C11.9364 23.9073 11.9364 23.9071 11.9364 23.9069C11.9364 23.9061 11.9364 23.9052 11.9363 23.9044C11.9363 23.9012 11.9356 23.8982 11.9355 23.8956C11.935 23.8852 11.9344 23.88 11.9336 23.88C11.9139 23.88 11.8935 23.88 11.8768 23.88C11.8615 23.88 11.8448 23.8801 11.831 23.8803C11.0484 23.8887 10.2693 24.1134 9.48941 24.5545C9.4431 24.579 9.40444 24.6042 9.36004 24.63Z"
                fill="#D9CCBA" />
        </g>
        <path
            d="M29.4528 14.7847V12.1813C28.9897 11.487 26.293 12.9893 26.184 13.2885C26.075 13.5878 26.075 15.4431 26.1186 15.6525C26.1622 15.862 29.4528 15.0541 29.4528 14.7847Z"
            fill="#EBDFCE" />
        <g filter="url(#filter4_d_17382_180)">
            <path
                d="M30.0831 17.0699V13.7814C29.4464 12.9044 25.7383 14.802 25.5885 15.18C25.4387 15.558 25.4387 17.9015 25.4986 18.1661C25.5586 18.4307 30.0831 17.4101 30.0831 17.0699Z"
                fill="#EBDFCE" />
        </g>
        <g filter="url(#filter5_d_17382_180)">
            <path
                d="M31.1335 19.9329V16.5074C30.1495 15.5938 24.4189 17.5705 24.1873 17.9642C23.9558 18.358 23.9558 20.7991 24.0484 21.0748C24.141 21.3504 31.1335 20.2873 31.1335 19.9329Z"
                fill="#EBDFCE" />
        </g>
        <g filter="url(#filter6_d_17382_180)">
            <path
                d="M32.3782 22.2883C32.5232 22.5279 32.3782 19.3545 32.3782 19.3545C31.0471 18.572 23.2952 20.265 22.9821 20.6022C22.6689 20.9394 22.7355 23.5037 22.8608 23.7397C22.986 23.9758 32.2333 22.0488 32.3782 22.2883Z"
                fill="#EBDFCE" />
        </g>
        <g filter="url(#filter7_d_17382_180)">
            <path
                d="M21.6164 23.9767C22.0278 23.5826 34.2544 21.2866 33.9591 22.5177C33.9591 22.5177 34.1163 26.6284 33.8127 26.8771C33.7088 26.9592 32.3462 27.0598 30.5578 27.1427L28.6076 24.0216C28.1949 23.3612 27.219 23.4048 26.8674 24.0997L25.2511 27.2931C23.1543 27.3113 21.4719 27.2621 21.3693 27.09C21.0915 26.6236 21.205 24.3709 21.6164 23.9767Z"
                fill="#EBDFCE" />
        </g>
    </g>
    <defs>
        <filter
            id="filter0_f_17382_180"
            x="11.4007"
            y="19.8547"
            width="6.76269"
            height="6.62915"
            filterUnits="userSpaceOnUse"
            color-interpolation-filters="sRGB">
            <feFlood
                flood-opacity="0"
                result="BackgroundImageFix" />
            <feBlend
                mode="normal"
                in="SourceGraphic"
                in2="BackgroundImageFix"
                result="shape" />
            <feGaussianBlur
                stdDeviation="1"
                result="effect1_foregroundBlur_17382_180" />
        </filter>
        <filter
            id="filter1_f_17382_180"
            x="12.9295"
            y="16.4008"
            width="6.76269"
            height="6.62915"
            filterUnits="userSpaceOnUse"
            color-interpolation-filters="sRGB">
            <feFlood
                flood-opacity="0"
                result="BackgroundImageFix" />
            <feBlend
                mode="normal"
                in="SourceGraphic"
                in2="BackgroundImageFix"
                result="shape" />
            <feGaussianBlur
                stdDeviation="1"
                result="effect1_foregroundBlur_17382_180" />
        </filter>
        <filter
            id="filter2_f_17382_180"
            x="12.9601"
            y="13.5308"
            width="5.39325"
            height="9.25854"
            filterUnits="userSpaceOnUse"
            color-interpolation-filters="sRGB">
            <feFlood
                flood-opacity="0"
                result="BackgroundImageFix" />
            <feBlend
                mode="normal"
                in="SourceGraphic"
                in2="BackgroundImageFix"
                result="shape" />
            <feGaussianBlur
                stdDeviation="1"
                result="effect1_foregroundBlur_17382_180" />
        </filter>
        <filter
            id="filter3_f_17382_180"
            x="7.17371"
            y="21.5654"
            width="6.76269"
            height="6.62915"
            filterUnits="userSpaceOnUse"
            color-interpolation-filters="sRGB">
            <feFlood
                flood-opacity="0"
                result="BackgroundImageFix" />
            <feBlend
                mode="normal"
                in="SourceGraphic"
                in2="BackgroundImageFix"
                result="shape" />
            <feGaussianBlur
                stdDeviation="1"
                result="effect1_foregroundBlur_17382_180" />
        </filter>
        <filter
            id="filter4_d_17382_180"
            x="13.4612"
            y="5.55237"
            width="28.6219"
            height="28.657"
            filterUnits="userSpaceOnUse"
            color-interpolation-filters="sRGB">
            <feFlood
                flood-opacity="0"
                result="BackgroundImageFix" />
            <feColorMatrix
                in="SourceAlpha"
                type="matrix"
                values="0 0 0 0 0 0 0 0 0 0 0 0 0 0 0 0 0 0 127 0"
                result="hardAlpha" />
            <feOffset dy="4" />
            <feGaussianBlur stdDeviation="6" />
            <feComposite
                in2="hardAlpha"
                operator="out" />
            <feColorMatrix
                type="matrix"
                values="0 0 0 0 0 0 0 0 0 0 0 0 0 0 0 0 0 0 0.16 0" />
            <feBlend
                mode="normal"
                in2="BackgroundImageFix"
                result="effect1_dropShadow_17382_180" />
            <feBlend
                mode="normal"
                in="SourceGraphic"
                in2="effect1_dropShadow_17382_180"
                result="shape" />
        </filter>
        <filter
            id="filter5_d_17382_180"
            x="11.9906"
            y="8.2688"
            width="31.1429"
            height="28.8511"
            filterUnits="userSpaceOnUse"
            color-interpolation-filters="sRGB">
            <feFlood
                flood-opacity="0"
                result="BackgroundImageFix" />
            <feColorMatrix
                in="SourceAlpha"
                type="matrix"
                values="0 0 0 0 0 0 0 0 0 0 0 0 0 0 0 0 0 0 127 0"
                result="hardAlpha" />
            <feOffset dy="4" />
            <feGaussianBlur stdDeviation="6" />
            <feComposite
                in2="hardAlpha"
                operator="out" />
            <feColorMatrix
                type="matrix"
                values="0 0 0 0 0 0 0 0 0 0 0 0 0 0 0 0 0 0 0.16 0" />
            <feBlend
                mode="normal"
                in2="BackgroundImageFix"
                result="effect1_dropShadow_17382_180" />
            <feBlend
                mode="normal"
                in="SourceGraphic"
                in2="effect1_dropShadow_17382_180"
                result="shape" />
        </filter>
        <filter
            id="filter6_d_17382_180"
            x="10.7564"
            y="11.1501"
            width="33.6863"
            height="28.6096"
            filterUnits="userSpaceOnUse"
            color-interpolation-filters="sRGB">
            <feFlood
                flood-opacity="0"
                result="BackgroundImageFix" />
            <feColorMatrix
                in="SourceAlpha"
                type="matrix"
                values="0 0 0 0 0 0 0 0 0 0 0 0 0 0 0 0 0 0 127 0"
                result="hardAlpha" />
            <feOffset dy="4" />
            <feGaussianBlur stdDeviation="6" />
            <feComposite
                in2="hardAlpha"
                operator="out" />
            <feColorMatrix
                type="matrix"
                values="0 0 0 0 0 0 0 0 0 0 0 0 0 0 0 0 0 0 0.16 0" />
            <feBlend
                mode="normal"
                in2="BackgroundImageFix"
                result="effect1_dropShadow_17382_180" />
            <feBlend
                mode="normal"
                in="SourceGraphic"
                in2="effect1_dropShadow_17382_180"
                result="shape" />
        </filter>
        <filter
            id="filter7_d_17382_180"
            x="9.21693"
            y="14.1584"
            width="36.7829"
            height="29.1382"
            filterUnits="userSpaceOnUse"
            color-interpolation-filters="sRGB">
            <feFlood
                flood-opacity="0"
                result="BackgroundImageFix" />
            <feColorMatrix
                in="SourceAlpha"
                type="matrix"
                values="0 0 0 0 0 0 0 0 0 0 0 0 0 0 0 0 0 0 127 0"
                result="hardAlpha" />
            <feOffset dy="4" />
            <feGaussianBlur stdDeviation="6" />
            <feComposite
                in2="hardAlpha"
                operator="out" />
            <feColorMatrix
                type="matrix"
                values="0 0 0 0 0 0 0 0 0 0 0 0 0 0 0 0 0 0 0.16 0" />
            <feBlend
                mode="normal"
                in2="BackgroundImageFix"
                result="effect1_dropShadow_17382_180" />
            <feBlend
                mode="normal"
                in="SourceGraphic"
                in2="effect1_dropShadow_17382_180"
                result="shape" />
        </filter>
        <clipPath id="clip0_17382_180">
            <rect
                width="28"
                height="16"
                fill="white"
                transform="translate(6 12)" />
        </clipPath>
    </defs>
</svg>
