<svg width="24"
    height="24"
    viewBox="0 0 24 24"
    fill="none"
    xmlns="http://www.w3.org/2000/svg">
    <path
        d="M9.81556 2.70007C7.99213 2.70007 6.16876 3.39375 4.78126 4.78125C2.00626 7.55625 2.00626 12.0749 4.78126 14.8499C6.16876 16.2374 7.98759 16.9314 9.82509 16.9314C11.6626 16.9314 13.4814 16.2374 14.8689 14.8499C17.6252 12.0749 17.6249 7.55625 14.8499 4.78125C13.4624 3.39375 11.639 2.70007 9.81556 2.70007ZM9.80641 3.8064C11.3439 3.8064 12.8813 4.38735 14.0438 5.5686C16.3876 7.91235 16.3875 11.7188 14.0625 14.0625C11.7188 16.4062 7.91237 16.4062 5.56862 14.0625C3.22487 11.7188 3.22487 7.91235 5.56862 5.5686C6.73112 4.4061 8.26891 3.8064 9.80641 3.8064ZM9.80641 4.9314C8.51266 4.9314 7.29376 5.4375 6.37501 6.375C5.49376 7.25625 5.00634 8.40007 4.95009 9.63757C4.93134 9.95632 5.17516 10.2 5.49391 10.2188H5.51259C5.81259 10.2188 6.05634 9.97493 6.07509 9.67493C6.11259 8.71868 6.50612 7.83735 7.16237 7.16235C7.87487 6.44985 8.81266 6.0564 9.80641 6.0564C10.1252 6.0564 10.3689 5.81265 10.3689 5.4939C10.3689 5.17515 10.1252 4.9314 9.80641 4.9314ZM6.56251 12C6.41333 12 6.27025 12.0593 6.16476 12.1648C6.05928 12.2702 6.00001 12.4133 6.00001 12.5625C6.00001 12.7117 6.05928 12.8548 6.16476 12.9602C6.27025 13.0657 6.41333 13.125 6.56251 13.125C6.7117 13.125 6.85477 13.0657 6.96026 12.9602C7.06575 12.8548 7.12501 12.7117 7.12501 12.5625C7.12501 12.4133 7.06575 12.2702 6.96026 12.1648C6.85477 12.0593 6.7117 12 6.56251 12ZM15.6306 15.0938C15.4877 15.0938 15.347 15.1501 15.2439 15.2626C15.0189 15.4876 15.0189 15.8437 15.2439 16.0499L15.7127 16.5187C15.6002 16.7437 15.5438 16.9875 15.5438 17.25C15.5438 17.7 15.7125 18.1313 16.0313 18.4501L18.4314 20.8125C18.7689 21.15 19.1999 21.3186 19.6311 21.3186C20.0624 21.3186 20.4937 21.1499 20.8312 20.8312C21.4874 20.1749 21.4874 19.1063 20.8312 18.4501L18.4314 16.0499C18.1127 15.7312 17.6813 15.5625 17.2313 15.5625C16.9688 15.5625 16.725 15.6188 16.5 15.7313L16.0313 15.2626C15.9188 15.1501 15.7736 15.0938 15.6306 15.0938ZM17.2313 16.6688C17.3813 16.6688 17.5313 16.7251 17.625 16.8376L20.0061 19.2188C20.2311 19.4438 20.2311 19.7999 20.0061 20.0061C19.7811 20.2311 19.425 20.2311 19.2188 20.0061L16.8377 17.6437C16.7252 17.5312 16.6688 17.3813 16.6688 17.2313C16.6688 17.0813 16.7252 16.9314 16.8377 16.8376C16.9502 16.7251 17.0813 16.6688 17.2313 16.6688Z"
        fill="#3E4252" />
</svg>
