<svg width="48"
    height="48"
    viewBox="0 0 48 48"
    fill="none"
    xmlns="http://www.w3.org/2000/svg">
    <path
        d="M13.2499 12.75C13.2499 6.95101 17.9509 2.25 23.7499 2.25C29.5489 2.25 34.2499 6.95101 34.2499 12.75C34.2499 18.549 29.5489 23.25 23.7499 23.25C17.9509 23.25 13.2499 18.549 13.2499 12.75Z"
        fill="#B42318" />
    <path
        fill-rule="evenodd"
        clip-rule="evenodd"
        d="M27.7499 36.75C27.7499 31.7794 31.7793 27.75 36.7499 27.75C41.7204 27.75 45.7499 31.7794 45.7499 36.75C45.7499 41.7206 41.7204 45.75 36.7499 45.75C31.7793 45.75 27.7499 41.7206 27.7499 36.75ZM32.0943 34.9228C31.872 35.4888 31.7499 36.1051 31.7499 36.75C31.7499 39.5114 33.9885 41.75 36.7499 41.75C37.3947 41.75 38.0111 41.6279 38.5771 41.4056L32.0943 34.9228ZM34.9227 32.0944L41.4055 38.5772C41.6278 38.0112 41.7499 37.3949 41.7499 36.75C41.7499 33.9886 39.5113 31.75 36.7499 31.75C36.105 31.75 35.4887 31.8721 34.9227 32.0944Z"
        fill="#B42318" />
    <path
        d="M28.4826 27.5058C28.3782 27.1865 27.9421 27.0825 27.0701 26.8745C26.3722 26.7081 25.6679 26.5749 24.9597 26.4751C22.832 26.175 20.6685 26.175 18.5407 26.4751C15.6118 26.8882 12.7477 27.8704 10.138 29.4243C9.90544 29.5628 9.61803 29.7249 9.29289 29.9084C7.86727 30.7127 5.712 31.9286 4.23567 33.3737C3.31233 34.2775 2.43503 35.4684 2.27553 36.9275C2.10592 38.4792 2.78285 39.9353 4.14088 41.2292C6.48378 43.4613 9.29535 45.25 12.932 45.25H25.3752C26.562 45.25 27.1555 45.25 27.3275 44.9441C27.4995 44.6383 27.1622 44.0833 26.4877 42.9733C25.3849 41.1587 24.7499 39.0285 24.7499 36.75C24.7499 33.7865 25.8241 31.074 27.6044 28.9805C28.2594 28.2102 28.5869 27.825 28.4826 27.5058Z"
        fill="#B42318" />
</svg>
