<svg width="20"
    height="20"
    viewBox="0 0 20 20"
    fill="none"
    xmlns="http://www.w3.org/2000/svg">
    <path
        d="M8.12496 9.99999C8.12496 8.96446 8.96443 8.12499 9.99996 8.12499C11.0355 8.12499 11.875 8.96446 11.875 9.99999C11.875 11.0355 11.0355 11.875 9.99996 11.875C8.96443 11.875 8.12496 11.0355 8.12496 9.99999Z"
        fill="black" />
    <path
        fill-rule="evenodd"
        clip-rule="evenodd"
        d="M1.66663 9.99999C1.66663 11.3661 2.02076 11.8262 2.72904 12.7464C4.14326 14.5837 6.51505 16.6667 9.99996 16.6667C13.4849 16.6667 15.8567 14.5837 17.2709 12.7464C17.9792 11.8262 18.3333 11.3661 18.3333 9.99999C18.3333 8.63385 17.9792 8.17377 17.2709 7.2536C15.8567 5.41629 13.4849 3.33333 9.99996 3.33333C6.51505 3.33333 4.14326 5.41629 2.72904 7.2536C2.02076 8.17377 1.66663 8.63385 1.66663 9.99999ZM9.99996 6.87499C8.27407 6.87499 6.87496 8.2741 6.87496 9.99999C6.87496 11.7259 8.27407 13.125 9.99996 13.125C11.7258 13.125 13.125 11.7259 13.125 9.99999C13.125 8.2741 11.7258 6.87499 9.99996 6.87499Z"
        fill="black" />
</svg>
