<svg width="62" height="75" viewBox="0 0 62 75" fill="none" xmlns="http://www.w3.org/2000/svg">
<g filter="url(#filter0_d_9375_13056)">
<path d="M31 4C17.1929 4 8 14.5525 8 27C8 39.35 20.5 53.5 31 61C32.8959 62.3542 32.5783 62.4471 34.4091 61C42 55 54 39.35 54 27C54 14.5525 44.8071 4 31 4Z" fill="#111D2E"/>
<g clip-path="url(#clip0_9375_13056)">
<path d="M33.6836 28.5054L36.2891 31.8658L37.0977 33.2857L36.7109 34.1558L36.083 35.2261H32.3223L30.2861 31.9673C29.8734 31.3068 28.8975 31.3505 28.5459 32.0454L26.9365 35.2261H17L28.4707 21.7837L33.6836 28.5054Z" fill="#EBDFCE"/>
<path d="M28.4712 21.7837L22.5287 35.2221L21.0508 35.2221L17.0002 35.2221L28.4712 21.7837Z" fill="#F8F0E5"/>
<g filter="url(#filter1_f_9375_13056)">
<path d="M26.9771 31.4193C27.0265 31.3894 27.0739 31.3552 27.1088 31.3121C27.1437 31.2689 27.1634 31.2198 27.1634 31.1693C27.1634 31.1188 27.1437 31.0697 27.1088 31.0265C27.0739 30.9834 27.0265 30.9492 26.9771 30.9193C26.9327 30.8935 26.894 30.8683 26.8477 30.8438C26.0678 30.4027 25.2887 30.178 24.5061 30.1696C24.4923 30.1694 24.4756 30.1693 24.4603 30.1693C24.4436 30.1693 24.4232 30.1693 24.4035 30.1693C24.4027 30.1693 24.402 30.1745 24.4016 30.1849C24.4014 30.1875 24.4008 30.1905 24.4007 30.1937C24.4007 30.1945 24.4007 30.1954 24.4007 30.1962C24.4007 30.1964 24.4007 30.1967 24.4007 30.1969C24.4007 30.1969 24.4007 30.1969 24.4007 30.197C24.4007 30.197 24.4007 30.197 24.4007 30.197C24.4007 30.197 24.4007 30.197 24.4007 30.197C24.4007 30.197 24.4007 30.197 24.4007 30.197C24.4007 30.197 24.4007 30.197 24.4007 30.197C24.4007 30.197 24.4007 30.197 24.4007 30.197C24.4007 30.197 24.4007 30.197 24.4007 30.197C24.4007 34.3022 24.4007 31.4934 24.4007 32.1416C24.4007 32.1416 24.4007 32.1416 24.4007 32.1416V32.1416C24.4007 32.1416 24.4007 32.1416 24.4007 32.1416C24.4007 32.1416 24.4007 32.1416 24.4007 32.1416C24.4007 32.1416 24.4007 32.1416 24.4007 32.1416C24.4007 32.1416 24.4007 32.1416 24.4007 32.1416C24.4007 32.1415 24.4007 32.1415 24.4007 32.1414C24.4007 32.1413 24.4007 32.1412 24.4007 32.1411C24.4007 32.1407 24.4007 32.1402 24.4007 32.1398C24.4007 32.138 24.4008 32.1361 24.401 32.1342C24.4014 32.1263 24.4034 32.1172 24.4048 32.1068C24.4061 32.0651 24.4077 32.0026 24.4097 31.9193C24.4136 31.7526 24.4188 31.5026 24.4254 31.1693C24.4188 30.836 24.4136 30.586 24.4097 30.4193C24.4077 30.336 24.4061 30.2735 24.4048 30.2318C24.4034 30.2214 24.4014 30.2123 24.401 30.2045C24.4008 30.2025 24.4007 30.2006 24.4007 30.1989C24.4007 30.1984 24.4007 30.198 24.4007 30.1975C24.4007 30.1974 24.4007 30.1973 24.4007 30.1972C24.4007 30.1971 24.4007 30.1971 24.4007 30.197C24.4007 30.197 24.4007 30.197 24.4007 30.197C24.4007 30.197 24.4007 30.197 24.4007 30.197C24.4007 30.197 24.4007 30.197 24.4007 30.197C24.4007 30.197 24.4007 30.197 24.4007 30.197V30.197C24.4007 30.197 24.4007 30.197 24.4007 30.197C24.4007 30.8452 24.4007 28.0364 24.4007 32.1416C24.4007 32.1416 24.4007 32.1416 24.4007 32.1416C24.4007 32.1416 24.4007 32.1416 24.4007 32.1416C24.4007 32.1416 24.4007 32.1416 24.4007 32.1416C24.4007 32.1416 24.4007 32.1416 24.4007 32.1416C24.4007 32.1416 24.4007 32.1416 24.4007 32.1416C24.4007 32.1416 24.4007 32.1417 24.4007 32.1417C24.4007 32.1417 24.4007 32.1417 24.4007 32.1418C24.4007 32.142 24.4007 32.1422 24.4007 32.1424C24.4007 32.1432 24.4007 32.1441 24.4007 32.1449C24.4008 32.1482 24.4014 32.1511 24.4016 32.1537C24.402 32.1641 24.4027 32.1693 24.4035 32.1693C24.4232 32.1693 24.4436 32.1693 24.4603 32.1693C24.4756 32.1693 24.4923 32.1692 24.5061 32.1691C25.2887 32.1606 26.0678 31.9359 26.8477 31.4948C26.894 31.4703 26.9327 31.4452 26.9771 31.4193Z" fill="#D9CCBA"/>
</g>
<g filter="url(#filter2_f_9375_13056)">
<path d="M28.5059 27.9653C28.5553 27.9353 28.6027 27.9012 28.6376 27.8581C28.6726 27.8149 28.6922 27.7658 28.6922 27.7153C28.6922 27.6648 28.6726 27.6157 28.6376 27.5725C28.6027 27.5293 28.5553 27.4952 28.5059 27.4653C28.4615 27.4394 28.4228 27.4143 28.3765 27.3898C27.5966 26.9487 26.8175 26.7239 26.0349 26.7155C26.0211 26.7154 26.0044 26.7153 25.9891 26.7153C25.9724 26.7153 25.952 26.7153 25.9323 26.7153C25.9315 26.7153 25.9308 26.7205 25.9304 26.7309C25.9302 26.7335 25.9296 26.7364 25.9296 26.7397C25.9295 26.7405 25.9295 26.7413 25.9295 26.7422C25.9295 26.7424 25.9295 26.7426 25.9295 26.7428C25.9295 26.7429 25.9295 26.7429 25.9295 26.7429C25.9295 26.7429 25.9295 26.7429 25.9295 26.743C25.9295 26.743 25.9295 26.743 25.9295 26.743C25.9295 26.743 25.9295 26.743 25.9295 26.743C25.9295 26.743 25.9295 26.743 25.9295 26.743C25.9295 26.743 25.9295 26.743 25.9295 26.743C25.9295 26.743 25.9295 26.743 25.9295 26.743C25.9295 30.8482 25.9295 28.0394 25.9295 28.6876C25.9295 28.6876 25.9295 28.6876 25.9295 28.6876V28.6876C25.9295 28.6876 25.9295 28.6876 25.9295 28.6876C25.9295 28.6876 25.9295 28.6876 25.9295 28.6876C25.9295 28.6876 25.9295 28.6876 25.9295 28.6876C25.9295 28.6875 25.9295 28.6875 25.9295 28.6875C25.9295 28.6875 25.9295 28.6874 25.9295 28.6874C25.9295 28.6873 25.9295 28.6872 25.9295 28.6871C25.9295 28.6866 25.9295 28.6862 25.9295 28.6857C25.9295 28.6839 25.9296 28.6821 25.9298 28.6801C25.9302 28.6723 25.9322 28.6632 25.9336 28.6528C25.9349 28.6111 25.9365 28.5486 25.9385 28.4653C25.9424 28.2986 25.9476 28.0486 25.9542 27.7153C25.9476 27.3819 25.9424 27.1319 25.9385 26.9653C25.9365 26.8819 25.9349 26.8194 25.9336 26.7778C25.9322 26.7674 25.9302 26.7582 25.9298 26.7504C25.9296 26.7485 25.9295 26.7466 25.9295 26.7448C25.9295 26.7444 25.9295 26.7439 25.9295 26.7435C25.9295 26.7434 25.9295 26.7433 25.9295 26.7432C25.9295 26.7431 25.9295 26.743 25.9295 26.743C25.9295 26.743 25.9295 26.743 25.9295 26.743C25.9295 26.743 25.9295 26.743 25.9295 26.743C25.9295 26.743 25.9295 26.743 25.9295 26.743C25.9295 26.743 25.9295 26.743 25.9295 26.743V26.743C25.9295 26.743 25.9295 26.743 25.9295 26.743C25.9295 27.3912 25.9295 24.5824 25.9295 28.6876C25.9295 28.6876 25.9295 28.6876 25.9295 28.6876C25.9295 28.6876 25.9295 28.6876 25.9295 28.6876C25.9295 28.6876 25.9295 28.6876 25.9295 28.6876C25.9295 28.6876 25.9295 28.6876 25.9295 28.6876C25.9295 28.6876 25.9295 28.6876 25.9295 28.6876C25.9295 28.6876 25.9295 28.6876 25.9295 28.6876C25.9295 28.6877 25.9295 28.6877 25.9295 28.6877C25.9295 28.6879 25.9295 28.6881 25.9295 28.6884C25.9295 28.6892 25.9295 28.69 25.9296 28.6909C25.9296 28.6941 25.9302 28.697 25.9304 28.6996C25.9308 28.7101 25.9315 28.7153 25.9323 28.7153C25.952 28.7153 25.9724 28.7153 25.9891 28.7153C26.0044 28.7153 26.0211 28.7152 26.0349 28.715C26.8175 28.7066 27.5966 28.4819 28.3765 28.0408C28.4228 28.0163 28.4615 27.9911 28.5059 27.9653Z" fill="#D9CCBA"/>
</g>
<g filter="url(#filter3_f_9375_13056)">
<path d="M27.1792 26.6601C27.2254 26.5411 27.2697 26.4313 27.3024 26.3516C27.3351 26.2703 27.3534 26.216 27.3534 26.1601C27.3534 26.1041 27.3351 26.0498 27.3024 25.9685C27.2697 25.8889 27.2254 25.779 27.1792 25.6601C27.1582 25.6084 27.1399 25.558 27.118 25.509C26.749 24.6269 26.3803 24.1774 26.0101 24.1606C26.0035 24.1602 25.9956 24.1601 25.9884 24.1601C25.9805 24.1601 25.9708 24.1601 25.9615 24.1601C25.9611 24.1601 25.9608 24.1705 25.9606 24.1913C25.9605 24.1965 25.9603 24.2024 25.9602 24.2089C25.9602 24.2105 25.9602 24.2122 25.9602 24.2139C25.9602 24.2143 25.9602 24.2148 25.9602 24.2152C25.9602 24.2152 25.9602 24.2153 25.9602 24.2153C25.9602 24.2154 25.9602 24.2154 25.9602 24.2154C25.9602 24.2154 25.9602 24.2155 25.9602 24.2155C25.9602 24.2155 25.9602 24.2155 25.9602 24.2155C25.9602 24.2155 25.9602 24.2155 25.9602 24.2155C25.9602 24.2155 25.9602 24.2155 25.9602 24.2155C25.9602 24.2155 25.9602 24.2155 25.9602 24.2155C25.9602 24.2155 25.9602 24.2155 25.9602 24.2155C25.9602 24.2155 25.9602 24.2155 25.9602 24.2155C25.9602 22.0549 25.9602 30.2653 25.9602 28.1046C25.9602 28.1046 25.9602 28.1046 25.9602 28.1046V28.1046C25.9602 28.1046 25.9602 28.1046 25.9602 28.1046C25.9602 28.1046 25.9602 28.1046 25.9602 28.1046C25.9602 28.1045 25.9602 28.1044 25.9602 28.1043C25.9602 28.1041 25.9602 28.1039 25.9602 28.1036C25.9602 28.1028 25.9602 28.1019 25.9602 28.101C25.9602 28.0974 25.9603 28.0937 25.9603 28.0898C25.9605 28.0741 25.9615 28.0559 25.9621 28.0351C25.9627 27.9517 25.9635 27.8267 25.9644 27.6601C25.9663 27.3267 25.9688 26.8267 25.9719 26.1601C25.9688 25.4934 25.9663 24.9934 25.9644 24.6601C25.9635 24.4934 25.9627 24.3684 25.9621 24.2851C25.9615 24.2642 25.9605 24.246 25.9603 24.2304C25.9603 24.2265 25.9602 24.2227 25.9602 24.2191C25.9602 24.2183 25.9602 24.2174 25.9602 24.2165C25.9602 24.2163 25.9602 24.2161 25.9602 24.2158C25.9602 24.2157 25.9602 24.2156 25.9602 24.2155C25.9602 24.2155 25.9602 24.2155 25.9602 24.2155C25.9602 24.2155 25.9602 24.2155 25.9602 24.2155V24.2155C25.9602 24.2155 25.9602 24.2155 25.9602 24.2155C25.9602 22.0549 25.9602 30.2653 25.9602 28.1046C25.9602 28.1046 25.9602 28.1046 25.9602 28.1046C25.9602 28.1046 25.9602 28.1046 25.9602 28.1046C25.9602 28.1046 25.9602 28.1046 25.9602 28.1046C25.9602 28.1046 25.9602 28.1046 25.9602 28.1046C25.9602 28.1046 25.9602 28.1046 25.9602 28.1046C25.9602 28.1046 25.9602 28.1047 25.9602 28.1047C25.9602 28.1047 25.9602 28.1047 25.9602 28.1047C25.9602 28.1047 25.9602 28.1048 25.9602 28.1048C25.9602 28.1048 25.9602 28.1049 25.9602 28.1049C25.9602 28.1054 25.9602 28.1058 25.9602 28.1062C25.9602 28.1079 25.9602 28.1096 25.9602 28.1112C25.9603 28.1177 25.9605 28.1236 25.9606 28.1288C25.9608 28.1496 25.9611 28.1601 25.9615 28.1601C25.9708 28.1601 25.9805 28.1601 25.9884 28.1601C25.9956 28.1601 26.0035 28.1599 26.0101 28.1596C26.3803 28.1427 26.749 27.6932 27.118 26.8111C27.1399 26.7621 27.1582 26.7117 27.1792 26.6601Z" fill="#D9CCBA"/>
</g>
<g filter="url(#filter4_f_9375_13056)">
<path d="M20.3599 32.63C20.3104 32.6599 20.2631 32.6941 20.2281 32.7372C20.1932 32.7804 20.1735 32.8295 20.1735 32.88C20.1735 32.9305 20.1932 32.9796 20.2281 33.0228C20.2631 33.0659 20.3104 33.1001 20.3599 33.13C20.4043 33.1558 20.4429 33.181 20.4892 33.2055C21.2691 33.6466 22.0482 33.8713 22.8308 33.8798C22.8446 33.8799 22.8614 33.88 22.8766 33.88C22.8933 33.88 22.9137 33.88 22.9334 33.88C22.9342 33.88 22.9349 33.8748 22.9353 33.8644C22.9355 33.8618 22.9361 33.8588 22.9362 33.8556C22.9362 33.8548 22.9362 33.8539 22.9362 33.8531C22.9362 33.8529 22.9362 33.8527 22.9362 33.8524C22.9362 33.8524 22.9362 33.8524 22.9362 33.8524C22.9362 33.8523 22.9362 33.8523 22.9362 33.8523C22.9362 33.8523 22.9362 33.8523 22.9362 33.8523C22.9362 33.8523 22.9362 33.8523 22.9362 33.8523C22.9362 33.8523 22.9362 33.8523 22.9362 33.8523C22.9362 33.8523 22.9362 33.8523 22.9362 33.8523C22.9362 33.8523 22.9362 33.8523 22.9362 33.8523C22.9362 29.7471 22.9362 32.5559 22.9362 31.9077C22.9362 31.9077 22.9362 31.9077 22.9362 31.9077V31.9077C22.9362 31.9077 22.9362 31.9077 22.9362 31.9077C22.9362 31.9077 22.9362 31.9077 22.9362 31.9077C22.9362 31.9077 22.9362 31.9077 22.9362 31.9077C22.9362 31.9077 22.9362 31.9077 22.9362 31.9077C22.9362 31.9078 22.9362 31.9078 22.9362 31.9079C22.9362 31.908 22.9362 31.9081 22.9362 31.9082C22.9362 31.9087 22.9362 31.9091 22.9362 31.9095C22.9362 31.9113 22.9361 31.9132 22.936 31.9152C22.9355 31.923 22.9335 31.9321 22.9322 31.9425C22.9309 31.9842 22.9292 32.0467 22.9273 32.13C22.9233 32.2967 22.9181 32.5467 22.9115 32.88C22.9181 33.2133 22.9233 33.4633 22.9273 33.63C22.9292 33.7133 22.9309 33.7758 22.9322 33.8175C22.9335 33.8279 22.9355 33.837 22.936 33.8448C22.9361 33.8468 22.9362 33.8487 22.9362 33.8505C22.9362 33.8509 22.9362 33.8514 22.9362 33.8518C22.9362 33.8519 22.9362 33.852 22.9362 33.8521C22.9362 33.8522 22.9362 33.8522 22.9362 33.8523C22.9362 33.8523 22.9362 33.8523 22.9362 33.8523C22.9362 33.8523 22.9362 33.8523 22.9362 33.8523C22.9362 33.8523 22.9362 33.8523 22.9362 33.8523C22.9362 33.8523 22.9362 33.8523 22.9362 33.8523V33.8523C22.9362 33.8523 22.9362 33.8523 22.9362 33.8523C22.9362 33.2041 22.9362 36.0129 22.9362 31.9077C22.9362 31.9077 22.9362 31.9077 22.9362 31.9077C22.9362 31.9077 22.9362 31.9077 22.9362 31.9077C22.9362 31.9077 22.9362 31.9077 22.9362 31.9077C22.9362 31.9077 22.9362 31.9077 22.9362 31.9077C22.9362 31.9077 22.9362 31.9077 22.9362 31.9077C22.9362 31.9077 22.9362 31.9077 22.9362 31.9076C22.9362 31.9076 22.9362 31.9076 22.9362 31.9076C22.9362 31.9073 22.9362 31.9071 22.9362 31.9069C22.9362 31.9061 22.9362 31.9052 22.9362 31.9044C22.9361 31.9012 22.9355 31.8982 22.9353 31.8956C22.9349 31.8852 22.9342 31.88 22.9334 31.88C22.9137 31.88 22.8933 31.88 22.8766 31.88C22.8614 31.88 22.8446 31.8801 22.8308 31.8803C22.0482 31.8887 21.2691 32.1134 20.4892 32.5545C20.4429 32.579 20.4043 32.6042 20.3599 32.63Z" fill="#D9CCBA"/>
</g>
<path d="M40.4527 22.7847V20.1813C39.9896 19.487 37.2929 20.9893 37.1839 21.2885C37.075 21.5878 37.075 23.4431 37.1185 23.6525C37.1621 23.862 40.4527 23.0541 40.4527 22.7847Z" fill="#EBDFCE"/>
<g filter="url(#filter5_d_9375_13056)">
<path d="M41.0833 25.0699V21.7814C40.4466 20.9044 36.7386 22.802 36.5888 23.18C36.4389 23.558 36.4389 25.9015 36.4989 26.1661C36.5588 26.4307 41.0833 25.4101 41.0833 25.0699Z" fill="#EBDFCE"/>
</g>
<g filter="url(#filter6_d_9375_13056)">
<path d="M42.1337 27.933V24.5075C41.1496 23.5939 35.419 25.5706 35.1875 25.9643C34.956 26.358 34.956 28.7992 35.0486 29.0748C35.1412 29.3504 42.1337 28.2873 42.1337 27.933Z" fill="#EBDFCE"/>
</g>
<g filter="url(#filter7_d_9375_13056)">
<path d="M43.3782 30.2883C43.5232 30.5279 43.3782 27.3545 43.3782 27.3545C42.0471 26.572 34.2952 28.265 33.9821 28.6022C33.6689 28.9394 33.7355 31.5037 33.8608 31.7397C33.986 31.9758 43.2333 30.0488 43.3782 30.2883Z" fill="#EBDFCE"/>
</g>
<g filter="url(#filter8_d_9375_13056)">
<path d="M32.6162 31.9758C33.034 31.5807 45.2557 29.2865 44.959 30.5178C44.9594 30.5298 45.1157 34.6278 44.8125 34.8762C44.7113 34.9584 43.348 35.0597 41.5576 35.1428L39.6074 32.0217C39.1947 31.3612 38.2188 31.4049 37.8672 32.0998L36.251 35.2932C34.1543 35.3113 32.472 35.2621 32.3691 35.09C32.0912 34.624 32.2048 32.3699 32.6162 31.9758Z" fill="#EBDFCE"/>
</g>
</g>
</g>
<defs>
<filter id="filter0_d_9375_13056" x="0" y="0" width="62" height="74.0508" filterUnits="userSpaceOnUse" color-interpolation-filters="sRGB">
<feFlood flood-opacity="0" result="BackgroundImageFix"/>
<feColorMatrix in="SourceAlpha" type="matrix" values="0 0 0 0 0 0 0 0 0 0 0 0 0 0 0 0 0 0 127 0" result="hardAlpha"/>
<feOffset dy="4"/>
<feGaussianBlur stdDeviation="4"/>
<feComposite in2="hardAlpha" operator="out"/>
<feColorMatrix type="matrix" values="0 0 0 0 0 0 0 0 0 0 0 0 0 0 0 0 0 0 0.16 0"/>
<feBlend mode="normal" in2="BackgroundImageFix" result="effect1_dropShadow_9375_13056"/>
<feBlend mode="normal" in="SourceGraphic" in2="effect1_dropShadow_9375_13056" result="shape"/>
</filter>
<filter id="filter1_f_9375_13056" x="22.4009" y="27.8547" width="6.7627" height="6.62927" filterUnits="userSpaceOnUse" color-interpolation-filters="sRGB">
<feFlood flood-opacity="0" result="BackgroundImageFix"/>
<feBlend mode="normal" in="SourceGraphic" in2="BackgroundImageFix" result="shape"/>
<feGaussianBlur stdDeviation="1" result="effect1_foregroundBlur_9375_13056"/>
</filter>
<filter id="filter2_f_9375_13056" x="23.9297" y="24.4006" width="6.7627" height="6.62927" filterUnits="userSpaceOnUse" color-interpolation-filters="sRGB">
<feFlood flood-opacity="0" result="BackgroundImageFix"/>
<feBlend mode="normal" in="SourceGraphic" in2="BackgroundImageFix" result="shape"/>
<feGaussianBlur stdDeviation="1" result="effect1_foregroundBlur_9375_13056"/>
</filter>
<filter id="filter3_f_9375_13056" x="23.96" y="21.8498" width="5.39355" height="8.62061" filterUnits="userSpaceOnUse" color-interpolation-filters="sRGB">
<feFlood flood-opacity="0" result="BackgroundImageFix"/>
<feBlend mode="normal" in="SourceGraphic" in2="BackgroundImageFix" result="shape"/>
<feGaussianBlur stdDeviation="1" result="effect1_foregroundBlur_9375_13056"/>
</filter>
<filter id="filter4_f_9375_13056" x="18.1733" y="29.5654" width="6.7627" height="6.62927" filterUnits="userSpaceOnUse" color-interpolation-filters="sRGB">
<feFlood flood-opacity="0" result="BackgroundImageFix"/>
<feBlend mode="normal" in="SourceGraphic" in2="BackgroundImageFix" result="shape"/>
<feGaussianBlur stdDeviation="1" result="effect1_foregroundBlur_9375_13056"/>
</filter>
<filter id="filter5_d_9375_13056" x="24.4614" y="13.5524" width="28.6221" height="28.657" filterUnits="userSpaceOnUse" color-interpolation-filters="sRGB">
<feFlood flood-opacity="0" result="BackgroundImageFix"/>
<feColorMatrix in="SourceAlpha" type="matrix" values="0 0 0 0 0 0 0 0 0 0 0 0 0 0 0 0 0 0 127 0" result="hardAlpha"/>
<feOffset dy="4"/>
<feGaussianBlur stdDeviation="6"/>
<feComposite in2="hardAlpha" operator="out"/>
<feColorMatrix type="matrix" values="0 0 0 0 0 0 0 0 0 0 0 0 0 0 0 0 0 0 0.16 0"/>
<feBlend mode="normal" in2="BackgroundImageFix" result="effect1_dropShadow_9375_13056"/>
<feBlend mode="normal" in="SourceGraphic" in2="effect1_dropShadow_9375_13056" result="shape"/>
</filter>
<filter id="filter6_d_9375_13056" x="22.9907" y="16.2689" width="31.1431" height="28.8511" filterUnits="userSpaceOnUse" color-interpolation-filters="sRGB">
<feFlood flood-opacity="0" result="BackgroundImageFix"/>
<feColorMatrix in="SourceAlpha" type="matrix" values="0 0 0 0 0 0 0 0 0 0 0 0 0 0 0 0 0 0 127 0" result="hardAlpha"/>
<feOffset dy="4"/>
<feGaussianBlur stdDeviation="6"/>
<feComposite in2="hardAlpha" operator="out"/>
<feColorMatrix type="matrix" values="0 0 0 0 0 0 0 0 0 0 0 0 0 0 0 0 0 0 0.16 0"/>
<feBlend mode="normal" in2="BackgroundImageFix" result="effect1_dropShadow_9375_13056"/>
<feBlend mode="normal" in="SourceGraphic" in2="effect1_dropShadow_9375_13056" result="shape"/>
</filter>
<filter id="filter7_d_9375_13056" x="21.7563" y="19.1501" width="33.6865" height="28.6096" filterUnits="userSpaceOnUse" color-interpolation-filters="sRGB">
<feFlood flood-opacity="0" result="BackgroundImageFix"/>
<feColorMatrix in="SourceAlpha" type="matrix" values="0 0 0 0 0 0 0 0 0 0 0 0 0 0 0 0 0 0 127 0" result="hardAlpha"/>
<feOffset dy="4"/>
<feGaussianBlur stdDeviation="6"/>
<feComposite in2="hardAlpha" operator="out"/>
<feColorMatrix type="matrix" values="0 0 0 0 0 0 0 0 0 0 0 0 0 0 0 0 0 0 0.16 0"/>
<feBlend mode="normal" in2="BackgroundImageFix" result="effect1_dropShadow_9375_13056"/>
<feBlend mode="normal" in="SourceGraphic" in2="effect1_dropShadow_9375_13056" result="shape"/>
</filter>
<filter id="filter8_d_9375_13056" x="20.2168" y="22.1582" width="36.7827" height="29.1385" filterUnits="userSpaceOnUse" color-interpolation-filters="sRGB">
<feFlood flood-opacity="0" result="BackgroundImageFix"/>
<feColorMatrix in="SourceAlpha" type="matrix" values="0 0 0 0 0 0 0 0 0 0 0 0 0 0 0 0 0 0 127 0" result="hardAlpha"/>
<feOffset dy="4"/>
<feGaussianBlur stdDeviation="6"/>
<feComposite in2="hardAlpha" operator="out"/>
<feColorMatrix type="matrix" values="0 0 0 0 0 0 0 0 0 0 0 0 0 0 0 0 0 0 0.16 0"/>
<feBlend mode="normal" in2="BackgroundImageFix" result="effect1_dropShadow_9375_13056"/>
<feBlend mode="normal" in="SourceGraphic" in2="effect1_dropShadow_9375_13056" result="shape"/>
</filter>
<clipPath id="clip0_9375_13056">
<rect width="28" height="16" fill="white" transform="translate(17 20)"/>
</clipPath>
</defs>
</svg>
